<svg width="56" height="15" viewBox="0 0 56 15" fill="none" xmlns="http://www.w3.org/2000/svg">
<path d="M6.21415 14.179C9.21841 14.1854 11.2894 12.2997 11.283 9.55753C11.2894 7.13494 9.63389 5.37074 7.28801 5.37074C5.82423 5.37074 4.50747 6.08026 3.96415 7.25639H3.88105C3.89383 4.9233 4.67366 3.42756 6.27807 3.42756C7.14738 3.42756 7.83773 3.86222 8.02309 4.69318H11.136C10.8931 2.49432 9.02665 0.730113 6.27807 0.730113C2.94142 0.730113 0.774515 3.35724 0.761731 7.67827C0.755339 12.4531 3.33773 14.1726 6.21415 14.179ZM6.19497 11.75C5.03801 11.75 4.18148 10.8423 4.17508 9.66619C4.18787 8.48366 5.05079 7.57599 6.20136 7.57599C7.37111 7.57599 8.22125 8.47088 8.21486 9.6598C8.22125 10.8551 7.36471 11.75 6.19497 11.75Z" fill="#EC4899"/>
<path d="M13.0776 14H22.7679V11.4496H17.4625V11.3665L19.0286 9.92188C21.8667 7.44815 22.6081 6.18892 22.6081 4.68679C22.6081 2.32812 20.6841 0.730113 17.7118 0.730113C14.8162 0.730113 12.8795 2.39844 12.8858 5.06392H15.8837C15.8837 3.88139 16.6124 3.19744 17.6991 3.19744C18.7665 3.19744 19.54 3.85582 19.54 4.93608C19.54 5.91406 18.9263 6.57884 17.8525 7.54403L13.0776 11.7244V14Z" fill="#EC4899"/>
<path d="M26.3395 14.1854C27.2152 14.1854 27.9886 13.4439 28.0014 12.5234C27.9886 11.6158 27.2152 10.8807 26.3395 10.8807C25.419 10.8807 24.6648 11.6158 24.6776 12.5234C24.6648 13.4439 25.419 14.1854 26.3395 14.1854Z" fill="#EC4899"/>
<path d="M34.6875 0.730113C31.6705 0.723721 29.6058 2.61577 29.6186 5.32599C29.625 7.7358 31.2678 9.48722 33.6136 9.48722C35.0774 9.48722 36.3942 8.78409 36.9375 7.60795H37.0142C37.0078 9.99219 36.2216 11.4815 34.6236 11.4815C33.7415 11.4815 33.0639 11.0469 32.8722 10.1712H29.7592C29.9958 12.4276 31.8622 14.179 34.6236 14.179C37.9602 14.179 40.1463 11.5518 40.1335 7.18608C40.1271 2.45597 37.5575 0.736505 34.6875 0.730113ZM34.7067 3.15909C35.8636 3.15909 36.7138 4.07315 36.7266 5.21733C36.733 6.3679 35.8445 7.28835 34.6939 7.28835C33.5242 7.28835 32.6932 6.39347 32.6868 5.22372C32.674 4.06037 33.5369 3.15909 34.7067 3.15909Z" fill="#EC4899"/>
<path d="M49.2022 11.5455C49.2086 13.1626 50.2505 14.5497 52.1873 14.5497C54.1177 14.5497 55.198 13.1626 55.1852 11.5455V10.8551C55.198 9.21875 54.1433 7.85085 52.1873 7.85085C50.2761 7.85085 49.2086 9.23793 49.2022 10.8551V11.5455ZM42.4139 4.05398C42.4267 5.67116 43.4622 7.03267 45.399 7.03267C47.3358 7.03267 48.4096 5.69034 48.4032 4.05398V3.36364C48.4096 1.72727 47.3613 0.359375 45.399 0.359375C43.5069 0.359375 42.4267 1.72727 42.4139 3.36364V4.05398ZM43.0787 14H44.8237L53.8237 0.909091H52.0787L43.0787 14ZM51.2413 10.8551C51.2477 10.2862 51.465 9.66619 52.1873 9.66619C52.9544 9.66619 53.1397 10.2862 53.127 10.8551V11.5455C53.1397 12.1143 52.9288 12.7088 52.1873 12.7088C51.4586 12.7088 51.2477 12.0952 51.2413 11.5455V10.8551ZM44.4721 3.36364C44.4849 2.81392 44.6767 2.17472 45.399 2.17472C46.166 2.17472 46.3514 2.79474 46.3386 3.36364V4.05398C46.3514 4.62287 46.1405 5.21733 45.399 5.21733C44.6959 5.21733 44.4849 4.62287 44.4721 4.05398V3.36364Z" fill="#EC4899"/>
</svg>
